<?xml version="1.0" encoding="UTF-8"?>
<svg id="Livello_1" xmlns="http://www.w3.org/2000/svg" version="1.1" xmlns:xlink="http://www.w3.org/1999/xlink" viewBox="0 0 1881.2 1750">
  <!-- Generator: Adobe Illustrator 29.1.0, SVG Export Plug-In . SVG Version: 2.1.0 Build 142)  -->
  <defs>
    <style>
      .st0 {
        fill: #fff;
      }

      .st1 {
        fill: #2b7cd3;
      }

      .st2 {
        opacity: .1;
      }

      .st2, .st3 {
        isolation: isolate;
      }

      .st3 {
        opacity: .2;
      }

      .st4 {
        fill: #185abd;
      }

      .st5 {
        fill: #41a5ee;
      }

      .st6 {
        fill: url(#linear-gradient);
      }

      .st7 {
        fill: #103f91;
      }
    </style>
    <linearGradient id="linear-gradient" x1="167.2" y1="-1137.4" x2="795.3" y2="-49.6" gradientTransform="translate(0 1468.5)" gradientUnits="userSpaceOnUse">
      <stop offset="0" stop-color="#2368c4"/>
      <stop offset=".5" stop-color="#1a5dbe"/>
      <stop offset="1" stop-color="#1146ac"/>
    </linearGradient>
  </defs>
  <path class="st5" d="M1801.1,0H517.7C473.4,0,437.5,35.9,437.5,80.2h0v357.3l743.8,218.8,700-218.8V80.2C1881.2,35.9,1845.3,0,1801.1,0h0Z"/>
  <path class="st1" d="M1881.2,437.5H437.5v437.5l743.8,131.2,700-131.2v-437.5Z"/>
  <path class="st4" d="M437.5,875v437.5l700,87.5,743.8-87.5v-437.5H437.5Z"/>
  <path class="st7" d="M517.7,1750h1283.4c44.3,0,80.2-35.9,80.2-80.2h0v-357.3H437.5v357.3c0,44.3,35.9,80.2,80.2,80.2h0Z"/>
  <path class="st2" d="M969.8,350H437.5v1093.8h532.3c44.2-.1,80.1-36,80.2-80.2V430.2c-.1-44.2-36-80-80.2-80.2Z"/>
  <path class="st3" d="M926.1,393.7h-488.6v1093.8h488.6c44.2-.1,80-36,80.2-80.2V473.9c-.1-44.2-36-80-80.2-80.2Z"/>
  <path class="st3" d="M926.1,393.7h-488.6v1006.2h488.6c44.2-.1,80-36,80.2-80.2V473.9c-.1-44.2-36-80-80.2-80.2Z"/>
  <path class="st3" d="M882.3,393.7h-444.8v1006.2h444.8c44.2-.1,80-36,80.2-80.2V473.9c-.1-44.2-36-80-80.2-80.2Z"/>
  <path class="st6" d="M80.2,393.7h802.1c44.3,0,80.2,35.9,80.2,80.2v802.1c0,44.3-35.9,80.2-80.2,80.2H80.2c-44.3,0-80.2-35.9-80.2-80.2V473.9c0-44.3,35.9-80.2,80.2-80.2Z"/>
  <path class="st0" d="M329.1,1008.8c1.6,12.4,2.6,23.1,3.1,32.4h1.8c.7-8.8,2.2-19.3,4.4-31.6,2.2-12.3,4.2-22.8,6-31.3l84.4-363.9h109.1l87.5,358.4c5.1,22.3,8.7,44.9,10.9,67.6h1.4c1.6-22,4.7-44,9.1-65.6l69.8-360.6h99.3l-122.6,521.5h-116l-83.1-345.4c-2.4-9.9-5.2-22.9-8.2-38.9s-4.9-27.7-5.6-35h-1.4c-1,8.5-2.8,21.1-5.6,37.8-2.8,16.7-5,29.1-6.7,37.1l-78.1,344.3h-118l-123.2-521.2h101.1l76,364.7c1.7,7.5,3.3,17.5,4.9,29.8Z"/>
</svg>