<?xml version="1.0" encoding="UTF-8"?>
<svg id="Layer_2" data-name="Layer 2" xmlns="http://www.w3.org/2000/svg" viewBox="0 0 919.01 901.95">
  <defs>
    <style>
      .cls-1 {
        fill: none;
        stroke: #fddda7;
        stroke-linecap: round;
        stroke-linejoin: round;
        stroke-width: 20px;
      }
    </style>
  </defs>
  <g id="Web">
    <g>
      <path class="cls-1" d="M850.06,262.46c-12.09-46.68-31.96-87.76-57.08-123.3-44.19-62.51-104.64-107.85-200.58-123.42-23.99-3.89-50.19-5.93-77.66-5.72-82.41.6-176.21,21.3-255.73,72.13-106.02,67.78-186.61,189.13-222.79,286.9C.04,466.82,8.29,541,19.85,595.96c11.56,54.95,26.45,90.67,43.28,111.74,16.83,21.07,35.61,27.48,54.5,27.36,18.89-.11,37.89-6.76,60.45-23.93,22.55-17.17,48.66-44.88,70.3-67.09,21.64-22.21,38.81-38.93,53.12-47.28,14.31-8.36,25.76-8.36,37.78-4.58,12.02,3.78,24.61,11.33,33.54,20.49,8.93,9.16,14.2,19.92,15.8,32.05,1.6,12.14-.46,25.64-8.93,37.66-8.47,12.02-23.35,22.55-35.95,42.02-12.59,19.46-22.9,47.85-17.52,74.42,5.38,26.56,26.45,51.29,49.57,65.26,18.51,11.18,38.34,15.47,81.69,2.17M664.58,759.42c32.8-23.85,64.22-51.31,90.39-82.18,41.86-49.38,70.3-107.48,87.47-166.22M177.2,525.41h-77.6l-38.8-67.2,38.8-67.2h77.6l38.8,67.2-38.8,67.2ZM276.29,329.66h-77.6l-38.8-67.2,38.8-67.2h77.6l38.8,67.2-38.8,67.2ZM373.61,181.83l38.8-67.2h77.6l38.8,67.2-38.8,67.2h-77.6l-38.8-67.2ZM529.67,519.57c-1.83,4.29-4.17,8.32-6.93,12l-13.16,22.79h-26.3c-2.26.27-4.57.41-6.91.41h0c-2.34,0-4.64-.14-6.91-.41h-26.31l-13.17-22.81c-2.76-3.68-5.09-7.7-6.92-11.98l-13.12-22.73,13.12-22.72c1.83-4.29,4.16-8.31,6.93-12l13.17-22.8h26.31c2.26-.27,4.57-.41,6.91-.41s4.64.14,6.91.41h26.3l13.17,22.8c2.76,3.68,5.09,7.71,6.93,12l13.12,22.72-13.12,22.72Z"/>
      <path class="cls-1" d="M713.58,486.26l-216.1,358.61c-.95,1.57-1.78,3.13-2.51,4.69l-6.24,9.81,2.44,4.69,13.74,26.38h0s0,0,0,0l29.26,1.27,5.73.25,6.86-10.78c.67-.83,1.33-1.69,1.97-2.59l243.2-340.79-78.36-51.53Z"/>
      <rect class="cls-1" x="722.37" y="456.89" width="94.32" height="60.23" transform="translate(394.16 -342.72) rotate(33.33)"/>
      <polygon class="cls-1" points="909.01 274.93 770.25 334.8 746.78 436 825.38 487.69 909.01 426.05 909.01 274.93"/>
    </g>
  </g>
</svg>