<?xml version="1.0" encoding="UTF-8"?>
<svg id="Layer_2" data-name="Layer 2" xmlns="http://www.w3.org/2000/svg" viewBox="0 0 924 924">
  <defs>
    <style>
      .cls-1 {
        fill: none;
        stroke: #fedea9;
        stroke-linecap: round;
        stroke-linejoin: round;
        stroke-width: 20px;
      }
    </style>
  </defs>
  <g id="Phone">
    <g>
      <polygon class="cls-1" points="583.11 10 340.89 10 131.11 131.11 10 340.89 10 583.11 131.11 792.89 340.89 914 583.11 914 792.89 792.89 914 583.11 914 340.89 792.89 131.11 583.11 10"/>
      <polygon class="cls-1" points="525.57 10 398.43 10 288.33 157.86 224.77 367.63 224.77 556.37 288.33 766.14 398.43 914 525.57 914 635.67 766.14 699.23 556.37 699.23 367.63 635.67 157.86 525.57 10"/>
      <polygon class="cls-1" points="131.11 131.11 288.33 157.86 635.67 157.86 792.89 131.11 914 340.89 914 583.11 792.89 792.89 635.67 766.14 288.33 766.14 131.11 792.89 10 583.11 10 340.89 131.11 131.11"/>
      <polygon class="cls-1" points="10 340.89 224.77 367.63 699.23 367.63 914 340.89 914 583.11 699.23 556.37 224.77 556.37 10 583.11 10 340.89"/>
    </g>
  </g>
</svg>